<svg width="44" height="32" viewBox="0 0 44 32" fill="none" xmlns="http://www.w3.org/2000/svg">
<path d="M24.0159 5.80237H19.5623V9.85171H24.0159V5.80237Z" fill="#099CEC"/>
<path d="M24.0159 10.667H19.5623V14.6692H24.0159V10.667Z" fill="#099CEC"/>
<path d="M18.7537 5.80237H14.3V9.85171H18.7537V5.80237Z" fill="#099CEC"/>
<path d="M29.2851 10.6603H24.8313V14.6626H29.2851V10.6603Z" fill="#099CEC"/>
<path d="M24.0159 0.903931H19.5623V4.99378H24.0159V0.903931Z" fill="#099CEC"/>
<path d="M13.4914 5.80237H9.03784V9.85171H13.4914V5.80237Z" fill="#099CEC"/>
<path d="M18.7537 10.6603H14.3V14.6626H18.7537V10.6603Z" fill="#099CEC"/>
<path d="M42.6662 12.5402C41.6959 11.8866 39.4591 11.6508 37.7409 11.9743C37.5186 10.3572 36.6156 8.94901 34.9717 7.68226L34.0284 7.05554L33.4017 7.99886C32.1618 9.87198 31.8251 12.9579 33.1525 14.9928C32.5664 15.3094 31.4139 15.7407 29.8913 15.7136H0.602115C0.0159904 19.1365 0.992959 23.5835 3.56687 26.6356C6.06652 29.5935 9.81277 31.0961 14.7111 31.0961C25.3165 31.0961 33.1659 26.2114 36.8381 17.3374C38.2801 17.3644 41.3928 17.3442 42.9898 14.2921C43.0908 14.1236 43.4344 13.4026 43.5623 13.1398L42.6662 12.5402Z" fill="#099CEC"/>
<path d="M8.23591 10.6603H8.22907H3.78223V14.6626H8.23591V10.6603Z" fill="#099CEC"/>
<path d="M13.4914 10.6603H9.03784V14.6626H13.4914V10.6603Z" fill="#099CEC"/>
</svg>
