<svg width="32" height="32" viewBox="0 0 32 32" fill="none" xmlns="http://www.w3.org/2000/svg">
<path fill-rule="evenodd" clip-rule="evenodd" d="M32 4C32 1.79231 30.2077 0 28 0H4C1.79231 0 0 1.79231 0 4V28C0 30.2077 1.79231 32 4 32H28C30.2077 32 32 30.2077 32 28V4Z" fill="#2867B2"/>
<path d="M9.17641 11.1641H3.81641V27.2867H9.17641V11.1641Z" fill="white"/>
<path d="M6.532 3.39062C4.69819 3.39062 3.5 4.59625 3.5 6.17644C3.5 7.72344 4.66175 8.96231 6.46106 8.96231H6.49569C8.36462 8.96231 9.52794 7.72344 9.52794 6.17644C9.49325 4.59625 8.36475 3.39062 6.532 3.39062V3.39062Z" fill="white"/>
<path d="M22.329 10.7852C19.4859 10.7852 18.2124 12.3487 17.4992 13.447V11.1643H12.1406C12.2117 12.6766 12.1406 27.2868 12.1406 27.2868H17.4992V18.2828C17.4992 17.8009 17.5338 17.3191 17.6759 16.9747C18.0626 16.0122 18.9449 15.0152 20.4254 15.0152C22.3637 15.0152 23.1402 16.4942 23.1402 18.6606V27.2868H28.499V18.0412C28.499 13.0889 25.8549 10.7852 22.329 10.7852V10.7852Z" fill="white"/>
</svg>
