<svg width="48" height="48" viewBox="0 0 48 48" fill="none" xmlns="http://www.w3.org/2000/svg">
<path d="M39.3623 36.0674C39.7988 35.1309 40 33.8184 40 32C40 25.5068 37.0088 21.7607 34.6055 18.75C33.1504 16.9268 32 15.4863 32 14L32.002 13.5342C32.0176 10.7734 32.0498 5.02734 28.998 1.95801C27.7061 0.65918 26.0244 0 24 0C19.7988 0 17 2.04102 17 12C17 14.7412 15.8467 16.9863 14.626 19.3633C14.0908 20.4053 13.5371 21.4834 13.0732 22.623C12.1494 24.8945 10 30.4541 10 33C10 33.1621 10.0391 33.3213 10.1143 33.4648L17.1924 46.9619C17.3447 47.252 17.6348 47.4414 17.96 47.4824C18 47.4873 18.04 47.4902 18.0801 47.4902C18.3643 47.4902 18.6426 47.3652 18.834 47.1514C19.2783 46.6562 22.2236 46 24 46H30.7842C31.0449 46 31.2949 45.8984 31.4814 45.7168L39.6973 37.7168C40.0938 37.3311 40.1016 36.6982 39.7168 36.3027C39.6133 36.1963 39.4922 36.1182 39.3623 36.0674Z" fill="#1A1A1A"/>
<path opacity="0.2" d="M14.626 19.8633C15.8467 17.4863 17 15.2412 17 12.5C17 2.54102 19.7988 0.5 24 0.5C26.0244 0.5 27.7061 1.15918 28.998 2.45801C31.6655 5.14075 31.9767 9.8678 32.0023 12.8596C32.004 9.92529 31.8287 4.80505 28.998 1.95801C27.7061 0.65918 26.0244 0 24 0C19.7988 0 17 2.04102 17 12C17 14.7412 15.8467 16.9863 14.626 19.3633C14.0908 20.4053 13.5371 21.4834 13.0732 22.623C12.1494 24.8945 10 30.4541 10 33C10 33.0455 10.026 33.0857 10.0321 33.1305C10.2015 30.4583 12.1888 25.2977 13.0732 23.123C13.5371 21.9834 14.0908 20.9053 14.626 19.8633Z" fill="white"/>
<path d="M39.7168 36.8026C39.8408 36.9302 39.9091 37.0847 39.9517 37.2454C40.035 36.9189 39.9686 36.5615 39.7168 36.3026C39.6562 36.2404 39.5803 36.208 39.5096 36.165C39.4608 36.2996 39.4189 36.4457 39.3623 36.5673C39.4922 36.618 39.6133 36.6962 39.7168 36.8026Z" fill="#0099D8"/>
<path opacity="0.2" d="M32 14.5C32 15.9863 33.1504 17.4268 34.6055 19.25C36.9865 22.2328 39.9354 25.9458 39.9901 32.3286C39.9918 32.2152 40 32.1176 40 32C40 25.5068 37.0088 21.7607 34.6055 18.75C33.1539 16.9312 32.0076 15.4932 32.002 14.0107C32.002 14.0177 32.002 14.0272 32.002 14.0342L32 14.5Z" fill="white"/>
<path d="M32 14C32 14.0037 32.002 14.0071 32.002 14.0107C32.0039 13.6681 32.0059 13.2821 32.0023 12.8596C32.0022 13.0887 32.0031 13.3342 32.002 13.5342L32 14Z" fill="#0099D8"/>
<path d="M32.2588 33.6236C32.2349 28.7544 31.5733 23.277 27.7255 15.4119C25.8213 16.6993 22.3258 17.7177 21.9059 17.7177C21.1488 17.7177 19.4958 17.1773 18.2814 16.1052C17.7821 17.5781 17.0909 18.9419 16.4053 20.2774C15.8896 21.2804 15.3564 22.3185 14.9268 23.3771C13.718 26.3468 12.3376 30.2563 12.0591 32.334C12.905 32.8977 13.495 34.1177 14.1465 35.4806C14.8213 36.8927 15.5859 38.4933 16.5713 39.1798C18.3744 40.4352 19.3092 42.2258 19.5542 43.8529C20.2404 43.9211 21.1052 43.9806 22.0879 43.9806C24.5277 43.9806 27.8355 43.4851 30.2824 42.0001C30.4197 39.3546 30.8843 35.1112 32.2588 33.6236Z" fill="white"/>
<path d="M39.9901 32.3286C39.9656 33.9686 39.7706 35.1914 39.3623 36.0674C39.4163 36.0885 39.4594 36.1345 39.5096 36.1652C39.8368 35.2634 40 34.0824 40 32.5C40 32.4398 39.9906 32.3883 39.9901 32.3286Z" fill="#0099D8"/>
<path opacity="0.1" d="M19.5541 43.8528C20.2403 43.921 21.1052 43.9805 22.0878 43.9805C24.5277 43.9805 27.8354 43.485 30.2823 42V41.5C27.8354 42.985 24.5277 43.4805 22.0878 43.4805C21.1052 43.4805 20.0892 43.412 19.4031 43.3438" fill="black"/>
<path opacity="0.3" d="M31.4878 45.2167C31.3013 45.3983 31.0513 45.4999 30.7905 45.4999H24.0063C22.23 45.4999 19.2847 46.1561 18.8403 46.6512C18.6489 46.8651 18.3706 46.9901 18.0864 46.9901C18.0464 46.9901 18.0063 46.9872 17.9663 46.9823C17.6411 46.9413 17.3511 46.7518 17.1987 46.4618L10.1206 32.9647C10.0665 32.8615 10.0541 32.745 10.0385 32.6304C10.0309 32.7494 10.0063 32.8914 10.0063 32.9999C10.0063 33.162 10.0454 33.3212 10.1206 33.4647L17.1987 46.9618C17.3511 47.2518 17.6411 47.4413 17.9663 47.4823C18.0063 47.4872 18.0464 47.4901 18.0864 47.4901C18.3706 47.4901 18.6489 47.3651 18.8403 47.1512C19.2847 46.6561 22.23 45.9999 24.0063 45.9999H30.7905C31.0513 45.9999 31.3013 45.8983 31.4878 45.7167L39.7036 37.7167C39.9723 37.4553 40.0475 37.0829 39.958 36.7454C39.9139 36.9176 39.8406 37.0835 39.7036 37.2167L31.4878 45.2167Z" fill="black"/>
<path d="M41.8524 38.1484C41.4384 37.877 41.0097 37.5957 40.7069 37.293C40.5302 37.1162 40.6112 36.2988 40.6542 35.8594C40.7372 35.0156 40.8231 34.1445 40.2558 33.5186C40.0419 33.2822 39.6493 33 38.9999 33C38.4647 33 38.0741 33.4238 38.0507 33.958C38.0501 33.9725 38.056 33.9856 38.056 34H33.9999C33.9999 33.4473 33.5526 33 32.9999 33C30.0341 33 29.9999 43.8896 29.9882 44.1279C29.9325 44.7246 29.8017 46.124 30.6972 47.1064C31.2372 47.6992 32.0116 48 32.9999 48C35.5956 48 36.8544 46.6621 38.0712 45.3691C38.2763 45.1504 38.4862 44.9277 38.7069 44.707C39.2138 44.2002 40.205 43.8389 41.08 43.5195C42.5155 42.9951 43.9999 42.4531 43.9999 41C43.9999 39.5576 42.8095 38.7764 41.8524 38.1484Z" fill="#FDB515"/>
<path d="M16.5713 39.1797C15.5859 38.4932 14.8213 36.8926 14.1465 35.4805C13.2539 33.6133 12.4824 32 11 32C9.12891 32 8.71973 33.6816 8.50098 34.585C8.44043 34.834 8.34863 35.209 8.33984 35.2529C8.19141 35.3447 7.63281 35.4551 7.26367 35.5283C6.04297 35.7705 4 36.1748 4 38C4 38.5312 4.0791 38.9824 4.16602 39.4521C4.32031 40.2842 4.46582 41.0693 4.03223 42.75C4.01074 42.8311 4 42.916 4 43C4 45.4043 7.73438 45.7158 9.96582 45.9014C10.3369 45.9326 10.6455 45.9561 10.8438 45.9873C11.1514 46.0361 11.7959 46.333 12.4189 46.6201C13.752 47.2354 15.4111 48 17 48C18.1426 48 19.0566 47.2617 19.4453 46.0254C20.0498 44.0986 19.249 41.0439 16.5713 39.1797Z" fill="#FDB515"/>
<path opacity="0.2" d="M7.10608 36.0283C7.48792 35.9551 8.06592 35.8447 8.21948 35.7529C8.22852 35.709 8.32349 35.334 8.38611 35.085C8.61243 34.1816 9.03577 32.5 10.9716 32.5C12.5052 32.5 13.3035 34.1133 14.2269 35.9805C14.925 37.3926 15.7162 38.9932 16.7356 39.6797C17.7511 40.363 18.5004 41.2078 19.0181 42.0968C18.5247 41.0272 17.735 39.9899 16.5712 39.1797C15.5858 38.4932 14.8212 36.8926 14.1464 35.4805C13.2538 33.6133 12.4823 32 10.9999 32C9.12878 32 8.7196 33.6816 8.50085 34.585C8.44031 34.834 8.34851 35.209 8.33972 35.2529C8.19128 35.3447 7.63269 35.4551 7.26355 35.5283C6.20337 35.7386 4.52673 36.0739 4.10303 37.3535C4.7655 36.4801 6.16858 36.2081 7.10608 36.0283Z" fill="white"/>
<path d="M39.0001 31C38.8084 31 38.6397 31.0681 38.4876 31.1614L31.8104 20.235C31.0813 18.1749 30.1485 15.9896 28.8888 13.542C28.6368 13.0527 28.0343 12.8584 27.5421 13.1104C27.0519 13.3633 26.8585 13.9668 27.1114 14.458C31.6261 23.2314 32.0001 28.708 32.002 33.9443C31.9903 34.1543 31.919 36.0273 32.9962 37.167C33.5118 37.7119 34.2042 38 35.0001 38L35.3526 38.002C35.4649 38.0029 35.5782 38.0039 35.6935 38.0039C36.7101 38.0039 37.8097 37.9268 38.67 37.0732C39.5899 36.1611 40.0001 34.5967 40.0001 32C40.0001 31.4473 39.5528 31 39.0001 31Z" fill="#1A1A1A"/>
<path opacity="0.3" d="M38.6698 36.5732C37.8095 37.4268 36.7098 37.5039 35.6932 37.5039C35.578 37.5039 35.4647 37.5029 35.3524 37.502L34.9999 37.5C34.204 37.5 33.5116 37.2119 32.996 36.667C32.1895 35.8137 32.0269 34.5498 32.001 33.8801C32.001 33.9014 32.0018 33.9231 32.0018 33.9443C31.9901 34.1543 31.9188 36.0273 32.996 37.167C33.5116 37.7119 34.204 38 34.9999 38L35.3524 38.002C35.4647 38.0029 35.578 38.0039 35.6932 38.0039C36.7098 38.0039 37.8095 37.9268 38.6698 37.0732C39.5897 36.1611 39.9999 34.5967 39.9999 32C39.9999 31.9679 39.9845 31.9408 39.9816 31.9094C39.9363 34.243 39.5363 35.7142 38.6698 36.5732Z" fill="black"/>
<path d="M26 6.08301C24.8408 6.08301 24 7.32715 24 9.04199C24 10.7559 24.8408 12 26 12C27.1592 12 28 10.7559 28 9.04199C28 7.32715 27.1592 6.08301 26 6.08301Z" fill="white"/>
<path d="M25.9999 11.5529C26.5009 11.5529 26.907 10.7576 26.907 9.77647C26.907 8.79535 26.5009 8 25.9999 8C25.4989 8 25.0928 8.79535 25.0928 9.77647C25.0928 10.7576 25.4989 11.5529 25.9999 11.5529Z" fill="black"/>
<path d="M20 6.08301C18.8408 6.08301 18 7.32715 18 9.04199C18 10.7559 18.8408 12 20 12C21.1592 12 22 10.7559 22 9.04199C22 7.32715 21.1592 6.08301 20 6.08301Z" fill="white"/>
<path d="M27.6036 15.4849C25.6775 16.7367 22.3175 17.7175 21.9058 17.7175C21.1487 17.7175 19.4957 17.1771 18.2812 16.105L31.8444 29.6681C31.5223 25.796 30.5068 21.3914 27.6036 15.4849Z" fill="url(#paint0_linear)"/>
<path d="M20 11.4824C20.491 11.4824 20.8891 10.7028 20.8891 9.74118C20.8891 8.77955 20.491 8 20 8C19.5089 8 19.1108 8.77955 19.1108 9.74118C19.1108 10.7028 19.5089 11.4824 20 11.4824Z" fill="black"/>
<path d="M23.1963 10.0195C23.1318 10.0068 23.0654 10 23 10C20.8496 10 17 12.0166 17 14C17 15.874 20.7822 18 22 18C22.5908 18 29 15.7744 29 14C29 11.3838 24.5576 10.292 23.1963 10.0195Z" fill="#FDB515"/>
<path d="M23.1963 10.0195C23.1318 10.0068 23.0654 10 23 10C20.8496 10 17 12.0166 17 14C17 15.874 20.7822 18 22 18C22.5908 18 29 15.7744 29 14C29 11.3838 24.5576 10.292 23.1963 10.0195Z" fill="#FDB515"/>
<path opacity="0.1" d="M41.08 43.0195C40.205 43.3389 39.2138 43.7002 38.707 44.207C38.4863 44.4277 38.2763 44.6504 38.0713 44.8691C36.8545 46.1621 35.5957 47.5 33 47.5C32.0117 47.5 31.2373 47.1992 30.6972 46.6064C30.1109 45.9633 29.9791 45.1571 29.9636 44.4988C29.9204 45.1896 29.9452 46.2814 30.6972 47.1064C31.2373 47.6992 32.0117 48 33 48C35.5957 48 36.8545 46.6621 38.0713 45.3691C38.2763 45.1504 38.4863 44.9277 38.707 44.707C39.2138 44.2002 40.205 43.8389 41.08 43.5195C42.5156 42.9951 44 42.4531 44 41C44 40.9275 43.9654 40.8751 43.9596 40.8059C43.7596 42.0258 42.4067 42.5349 41.08 43.0195Z" fill="black"/>
<path opacity="0.1" d="M19.4453 45.5254C19.0566 46.7617 18.1426 47.5 17 47.5C15.4111 47.5 13.752 46.7354 12.4189 46.1201C11.7959 45.833 11.1514 45.5361 10.8438 45.4873C10.6455 45.4561 10.3369 45.4326 9.96582 45.4014C7.80481 45.2217 4.26489 44.9062 4.04163 42.7039C4.03723 42.7212 4.03674 42.7325 4.03223 42.75C4.01074 42.8311 4 42.916 4 43C4 45.4043 7.73438 45.7158 9.96582 45.9014C10.3369 45.9326 10.6455 45.9561 10.8438 45.9873C11.1514 46.0361 11.7959 46.333 12.4189 46.6201C13.752 47.2354 15.4111 48 17 48C18.1426 48 19.0566 47.2617 19.4453 46.0254C19.6034 45.5215 19.6593 44.9386 19.6167 44.3219C19.6058 44.7501 19.5593 45.1619 19.4453 45.5254Z" fill="black"/>
<path opacity="0.1" d="M21.9781 17.5C20.8572 17.5 17.6356 15.7375 17.0027 13.988C17.0027 13.9921 17 13.996 17 14C17 15.874 20.7822 18 22 18C22.5908 18 29 15.7744 29 14C29 13.9613 28.979 13.9302 28.9771 13.8921C28.028 15.6027 22.5297 17.5 21.9781 17.5Z" fill="black"/>
<path d="M41.8525 38.1483C41.4385 37.8768 41.0098 37.5956 40.707 37.2928C40.5303 37.1161 40.6113 36.2987 40.6543 35.8593C40.7373 35.0155 40.8232 34.1444 40.2559 33.5184C40.1833 33.4382 40.0676 33.363 39.9424 33.2925C39.8167 35.1133 39.4209 36.3285 38.6699 37.0731C37.8096 37.9266 36.71 38.0038 35.6934 38.0038C35.5781 38.0038 35.4648 38.0028 35.3525 38.0018L35 37.9999C34.2041 37.9999 33.5117 37.7118 32.9961 37.1669L39.8376 44.0084C40.2369 43.8297 40.67 43.6691 41.0801 43.5194C42.5156 42.995 44 42.453 44 40.9999C44 39.5575 42.8096 38.7762 41.8525 38.1483Z" fill="url(#paint1_linear)"/>
<path d="M41.8525 38.1484C41.4385 37.877 41.0098 37.5957 40.707 37.293C40.5303 37.1162 40.6113 36.2988 40.6543 35.8594C40.7373 35.0156 40.8232 34.1445 40.2559 33.5186C40.1875 33.4431 40.0664 33.3704 39.9591 33.2963C39.986 32.8951 40 32.4651 40 32C40 25.5068 37.0088 21.7607 34.6055 18.75C33.1504 16.9268 32 15.4863 32 14L32.002 13.5342C32.0176 10.7734 32.0498 5.02734 28.998 1.95801C27.7061 0.65918 26.0244 0 24 0C19.7988 0 17 2.04102 17 12C17 14.7412 15.8467 16.9863 14.626 19.3633C14.0908 20.4053 13.5371 21.4834 13.0732 22.623C12.2357 24.6824 10.4076 29.4215 10.0703 32.1902C8.98938 32.645 8.67676 33.8593 8.50098 34.585C8.44043 34.834 8.34863 35.209 8.33984 35.2529C8.19141 35.3447 7.63281 35.4551 7.26367 35.5283C6.04297 35.7705 4 36.1748 4 38C4 38.5312 4.0791 38.9824 4.16602 39.4521C4.32031 40.2842 4.46582 41.0693 4.03223 42.75C4.01074 42.8311 4 42.916 4 43C4 45.4043 7.73438 45.7158 9.96582 45.9014C10.3369 45.9326 10.6455 45.9561 10.8438 45.9873C11.1514 46.0361 11.7959 46.333 12.4189 46.6201C13.752 47.2354 15.4111 48 17 48C17.6838 48 18.2675 47.7091 18.7239 47.2317C18.7588 47.202 18.8032 47.1858 18.834 47.1514C19.2783 46.6562 22.2236 46 24 46H30.1213C30.2316 46.3855 30.3904 46.7698 30.6973 47.1064C31.2373 47.6992 32.0117 48 33 48C35.5957 48 36.8545 46.6621 38.0713 45.3691C38.2764 45.1504 38.4863 44.9277 38.707 44.707C39.2139 44.2002 40.2051 43.8389 41.0801 43.5195C42.5156 42.9951 44 42.4531 44 41C44 39.5576 42.8096 38.7764 41.8525 38.1484Z" fill="url(#paint2_linear)"/>
<defs>
<linearGradient id="paint0_linear" x1="20.7669" y1="13.6194" x2="34.33" y2="27.1825" gradientUnits="userSpaceOnUse">
<stop stop-opacity="0.1"/>
<stop offset="1" stop-opacity="0"/>
</linearGradient>
<linearGradient id="paint1_linear" x1="35.723" y1="34.44" x2="43.5175" y2="42.2345" gradientUnits="userSpaceOnUse">
<stop stop-opacity="0.1"/>
<stop offset="1" stop-opacity="0"/>
</linearGradient>
<linearGradient id="paint2_linear" x1="10.4901" y1="20.1193" x2="46.1713" y2="36.7577" gradientUnits="userSpaceOnUse">
<stop stop-color="white" stop-opacity="0.2"/>
<stop offset="1" stop-color="white" stop-opacity="0"/>
</linearGradient>
</defs>
</svg>
