<svg width="48" height="48" viewBox="0 0 48 48" fill="none" xmlns="http://www.w3.org/2000/svg">
<path d="M24.047 4.99995C22.492 5.00495 21.414 5.14195 20.111 5.36695C16.263 6.03695 15.562 7.44395 15.562 10.037V14H24.562V16H15.22H10.87C8.23395 16 5.92695 17.242 5.19595 20.219C4.36995 23.636 4.33295 25.776 5.19595 29.344C5.85095 32.005 7.29395 34 9.93095 34H13.563V28.896C13.563 25.93 16.249 23 19.327 23H26.563C29.086 23 31.563 21.138 31.563 18.623V10.037C31.563 7.59795 29.8039 5.77395 27.3449 5.36495C27.4059 5.35895 25.589 4.99395 24.047 4.99995ZM19.063 8.99995C19.884 8.99995 20.563 9.67695 20.563 10.502C20.563 11.335 19.884 12 19.063 12C18.226 12 17.563 11.336 17.563 10.502C17.563 9.67995 18.226 8.99995 19.063 8.99995Z" fill="#0277BD"/>
<path d="M23.078 43C24.633 42.995 25.711 42.858 27.014 42.633C30.862 41.963 31.563 40.556 31.563 37.963V34H22.563V32H31.906H36.256C38.892 32 41.199 30.758 41.93 27.781C42.756 24.364 42.793 22.224 41.93 18.656C41.274 15.995 39.831 14 37.194 14H33.562V19.104C33.562 22.07 30.876 25 27.798 25H20.562C18.039 25 15.562 26.862 15.562 29.377V37.963C15.562 40.402 17.321 42.226 19.78 42.635C19.719 42.641 21.536 43.006 23.078 43ZM28.063 39C27.242 39 26.563 38.323 26.563 37.498C26.563 36.665 27.242 36 28.063 36C28.9 36 29.563 36.664 29.563 37.498C29.563 38.32 28.899 39 28.063 39Z" fill="#FFC107"/>
</svg>
