<svg width="48" height="48" viewBox="0 0 48 48" fill="none" xmlns="http://www.w3.org/2000/svg">
<path d="M48 23.972H47.946L39.31 15.336L47.916 6.508V2.922L46.618 1.626H30.222L28.902 2.836V4.926L24.03 0.054V0L24 0.028L23.972 0V0.054L21.392 2.636L20.316 1.558H4.07L2.794 2.942V6.712L4.026 7.944H5.466V18.564L0.054 23.974H0L0.028 24L0 24.028H0.054L5.466 29.44V42.374L7.28 43.42H11.924L15.638 39.612L23.97 47.944V48L24 47.972L24.028 48V47.944L29.048 42.926H30.018C30.24 42.926 30.44 42.786 30.518 42.568L30.81 41.716C30.866 41.548 30.834 41.372 30.736 41.238L33.66 38.314L32.436 42.238C32.35 42.52 32.508 42.816 32.79 42.902C32.84 42.918 32.894 42.926 32.946 42.926H36.594C36.806 42.924 36.996 42.798 37.08 42.6L37.41 41.812C37.46 41.682 37.458 41.536 37.402 41.406C37.348 41.276 37.242 41.174 37.11 41.122C37.052 41.098 36.986 41.084 36.916 41.082H36.766L38.446 35.794H40.91L38.878 42.236C38.792 42.518 38.95 42.814 39.23 42.9C39.28 42.916 39.334 42.924 39.388 42.924H43.392C43.612 42.924 43.806 42.792 43.888 42.584L44.216 41.728C44.318 41.452 44.174 41.148 43.9 41.046C43.842 41.024 43.78 41.012 43.718 41.012H43.428L45.69 33.666C45.744 33.502 45.714 33.32 45.612 33.186L44.862 32.178L44.856 32.168C44.754 32.04 44.602 31.964 44.438 31.964H41.566C41.424 31.964 41.284 32.024 41.186 32.126L40.386 33.004H39.138L39.054 32.912L47.944 24.022H48L47.972 24L48 23.972ZM19.676 42.278L22.834 33.26H21.832L22.426 32.652H25.744L22.618 41.762H23.864L23.706 42.278H19.676ZM27.066 27.246L27.366 27.548L26.828 29.392L26.378 29.844H24.44L24.078 29.482L24.7 27.74L25.276 27.246H27.066V27.246ZM11.18 41.658H7.754L7.23 41.358V6.182H4.758L4.558 5.982V3.63L4.844 3.322H19.586L20.012 3.75V5.966L19.728 6.312H17.57V23.688L35.184 6.312H31.012L30.662 5.936V3.61L30.904 3.388H45.884L46.148 3.654V5.794L25.958 26.5H25.212C25.182 26.498 25.156 26.5 25.128 26.502L25.088 26.508C24.998 26.528 24.916 26.568 24.85 26.628L24.164 27.218L24.156 27.224C24.09 27.286 24.038 27.362 24.01 27.446L23.418 29.106L11.18 41.658V41.658ZM40.716 33.754L41.664 32.716H44.332L44.95 33.546L42.42 41.76H43.406L43.246 42.178H39.68L41.928 35.05H37.898L35.744 41.832H36.592L36.446 42.18H33.236L35.45 35.084H31.258L29.134 41.762H30.006L29.862 42.18H26.54L29.568 33.26H28.396L28.578 32.718H31.878L32.916 33.792H34.728L35.71 32.684H37.832L38.81 33.754H40.716V33.754Z" fill="black"/>
</svg>
