<svg width="56" height="56" viewBox="0 0 56 56" fill="none" xmlns="http://www.w3.org/2000/svg">
<path d="M39.8721 4.95713C40.0914 5.06446 46.5081 8.12579 49.6418 9.62146C50.6766 10.115 51.3334 11.158 51.3334 12.3036V43.6403C51.3334 44.7848 50.6813 45.8266 49.6499 46.3225C46.6773 47.7551 40.7704 50.5995 40.3773 50.7861C40.0879 50.9238 39.3273 51.3333 38.7113 51.3333C37.9203 51.3333 37.3894 50.9646 36.8679 50.4816L39.6668 41.6628V6.66746L37.0371 5.34329C37.5994 4.79379 38.3788 4.66663 38.8396 4.66663C39.2619 4.66663 39.6061 4.82763 39.8721 4.95713Z" fill="url(#paint0_linear)"/>
<path d="M10.5001 39.5454L39.6667 17.3519V6.80169C39.6667 5.28619 37.7277 4.69235 36.9402 5.42035C36.1761 6.12502 5.4344 34.1122 5.4344 34.1122C4.3844 35.0805 4.4439 36.757 5.55924 37.6495C5.55924 37.6495 7.1039 39.0869 7.66274 39.4859C8.5214 40.0984 9.64957 40.1684 10.5001 39.5454Z" fill="url(#paint1_linear)"/>
<path d="M10.5001 16.4547L39.6667 38.6844V48.9172C39.6667 50.3149 38.0101 51.4757 36.8679 50.4817L5.4344 21.8879C4.3844 20.9196 4.4439 19.2431 5.55924 18.3506C5.55924 18.3506 7.1039 16.9132 7.66274 16.5142C8.5214 15.9017 9.64957 15.8317 10.5001 16.4547Z" fill="#0288D1"/>
<defs>
<linearGradient id="paint0_linear" x1="44.1001" y1="50.5983" x2="44.1001" y2="8.65663" gradientUnits="userSpaceOnUse">
<stop stop-color="#29B6F6"/>
<stop offset="1" stop-color="#13B2F6"/>
</linearGradient>
<linearGradient id="paint1_linear" x1="7.09924" y1="40.6012" x2="40.5919" y2="8.36852" gradientUnits="userSpaceOnUse">
<stop offset="0.115" stop-color="#0076BB"/>
<stop offset="0.257" stop-color="#0069B0"/>
<stop offset="0.28" stop-color="#0069B0"/>
<stop offset="0.424" stop-color="#0069B0"/>
<stop offset="0.491" stop-color="#0072B7"/>
<stop offset="0.577" stop-color="#0076BB"/>
<stop offset="0.795" stop-color="#0076BB"/>
<stop offset="1" stop-color="#006EB9"/>
</linearGradient>
</defs>
</svg>
